{
  "accessors": [
    {
      "bufferView": 2,
      "componentType": 5126,
      "count": 65532,
      "max": [
        2.0501692295074463,
        2.517150402069092,
        0.6863982677459717
      ],
      "min": [
        -2.04957914352417,
        -2.7267844676971436,
        -0.7078087329864502
      ],
      "type": "VEC3"
    },
    {
      "bufferView": 2,
      "byteOffset": 786384,
      "componentType": 5126,
      "count": 65532,
      "max": [
        1.0,
        1.0,
        1.0
      ],
      "min": [
        -1.0,
        -1.0,
        -1.0
      ],
      "type": "VEC3"
    },
    {
      "bufferView": 3,
      "componentType": 5126,
      "count": 65532,
      "max": [
        1.0,
        1.0,
        1.0,
        1.0
      ],
      "min": [
        -1.0,
        -1.0,
        -0.9999923706054688,
        -1.0
      ],
      "type": "VEC4"
    },
    {
      "bufferView": 1,
      "componentType": 5126,
      "count": 65532,
      "max": [
        0.9888634085655212,
        0.9988754391670227
      ],
      "min": [
        0.0010581128299236298,
        0.0007267672335729003
      ],
      "type": "VEC2"
    },
    {
      "bufferView": 0,
      "componentType": 5125,
      "count": 328632,
      "type": "SCALAR"
    },
    {
      "bufferView": 2,
      "byteOffset": 1572768,
      "componentType": 5126,
      "count": 30254,
      "max": [
        2.1360790729522705,
        2.5118775367736816,
        0.7750779390335083
      ],
      "min": [
        -2.1360790729522705,
        -2.7267844676971436,
        -1.5011796951293945
      ],
      "type": "VEC3"
    },
    {
      "bufferView": 2,
      "byteOffset": 1935816,
      "componentType": 5126,
      "count": 30254,
      "max": [
        1.0,
        1.0,
        0.9999997019767761
      ],
      "min": [
        -0.9999932646751404,
        -1.0,
        -1.0
      ],
      "type": "VEC3"
    },
    {
      "bufferView": 3,
      "byteOffset": 1048512,
      "componentType": 5126,
      "count": 30254,
      "max": [
        1.0,
        1.0,
        1.0,
        1.0
      ],
      "min": [
        -1.0,
        -1.0,
        -1.0,
        -1.0
      ],
      "type": "VEC4"
    },
    {
      "bufferView": 1,
      "byteOffset": 524256,
      "componentType": 5126,
      "count": 30254,
      "max": [
        0.9888634085655212,
        0.9988633990287781
      ],
      "min": [
        0.0010606639552861452,
        0.0007247495232149959
      ],
      "type": "VEC2"
    },
    {
      "bufferView": 0,
      "byteOffset": 1314528,
      "componentType": 5125,
      "count": 134208,
      "type": "SCALAR"
    },
    {
      "bufferView": 2,
      "byteOffset": 2298864,
      "componentType": 5126,
      "count": 65532,
      "max": [
        1.8650020360946655,
        2.4932289123535156,
        0.692864179611206
      ],
      "min": [
        -1.8650020360946655,
        -2.726945400238037,
        -0.6708497405052185
      ],
      "type": "VEC3"
    },
    {
      "bufferView": 2,
      "byteOffset": 3085248,
      "componentType": 5126,
      "count": 65532,
      "max": [
        1.0,
        1.0,
        1.0
      ],
      "min": [
        -1.0,
        -1.0,
        -1.0
      ],
      "type": "VEC3"
    },
    {
      "bufferView": 3,
      "byteOffset": 1532576,
      "componentType": 5126,
      "count": 65532,
      "max": [
        1.0,
        1.0,
        1.0,
        1.0
      ],
      "min": [
        -1.0,
        -1.0,
        -1.0,
        -1.0
      ],
      "type": "VEC4"
    },
    {
      "bufferView": 1,
      "byteOffset": 766288,
      "componentType": 5126,
      "count": 65532,
      "max": [
        0.9790855050086975,
        0.9889854788780212
      ],
      "min": [
        0.0,
        0.0
      ],
      "type": "VEC2"
    },
    {
      "bufferView": 0,
      "byteOffset": 1851360,
      "componentType": 5125,
      "count": 337104,
      "type": "SCALAR"
    },
    {
      "bufferView": 2,
      "byteOffset": 3871632,
      "componentType": 5126,
      "count": 61690,
      "max": [
        1.1983133554458618,
        2.4932289123535156,
        0.6428922414779663
      ],
      "min": [
        -1.198606252670288,
        -2.636140823364258,
        -0.5509144067764282
      ],
      "type": "VEC3"
    },
    {
      "bufferView": 2,
      "byteOffset": 4611912,
      "componentType": 5126,
      "count": 61690,
      "max": [
        1.0,
        1.0,
        1.0
      ],
      "min": [
        -1.0,
        -1.0,
        -1.0
      ],
      "type": "VEC3"
    },
    {
      "bufferView": 3,
      "byteOffset": 2581088,
      "componentType": 5126,
      "count": 61690,
      "max": [
        1.0,
        1.0,
        1.0,
        1.0
      ],
      "min": [
        -1.0,
        -1.0,
        -1.0,
        -1.0
      ],
      "type": "VEC4"
    },
    {
      "bufferView": 1,
      "byteOffset": 1290544,
      "componentType": 5126,
      "count": 61690,
      "max": [
        0.9721343517303467,
        0.9989854693412781
      ],
      "min": [
        0.0007624095305800438,
        0.0008607694180682302
      ],
      "type": "VEC2"
    },
    {
      "bufferView": 0,
      "byteOffset": 3199776,
      "componentType": 5125,
      "count": 307152,
      "type": "SCALAR"
    }
  ],
  "asset": {
    "extras": {
      "author": "Petri Liuhto (https://sketchfab.com/petri.liuhto)",
      "license": "CC-BY-NC-4.0 (http://creativecommons.org/licenses/by-nc/4.0/)",
      "source": "https://sketchfab.com/3d-models/jedi-star-fighter-0b641c2f2b854f1f9ae7f2a731e44dbd",
      "title": "Jedi Star Fighter"
    },
    "generator": "Sketchfab-12.67.0",
    "version": "2.0"
  },
  "bufferViews": [
    {
      "buffer": 0,
      "byteLength": 4428384,
      "name": "floatBufferViews",
      "target": 34963
    },
    {
      "buffer": 0,
      "byteLength": 1784064,
      "byteOffset": 4428384,
      "byteStride": 8,
      "name": "floatBufferViews",
      "target": 34962
    },
    {
      "buffer": 0,
      "byteLength": 5352192,
      "byteOffset": 6212448,
      "byteStride": 12,
      "name": "floatBufferViews",
      "target": 34962
    },
    {
      "buffer": 0,
      "byteLength": 3568128,
      "byteOffset": 11564640,
      "byteStride": 16,
      "name": "floatBufferViews",
      "target": 34962
    }
  ],
  "buffers": [
    {
      "byteLength": 15132768,
      "uri": "scene.bin"
    }
  ],
  "images": [
    {
      "uri": "textures/jsf_mainMat_baseColor.png"
    },
    {
      "uri": "textures/jsf_mainMat_metallicRoughness.png"
    },
    {
      "uri": "textures/jsf_mainMat_normal.png"
    },
    {
      "uri": "textures/jsf_auxMat_baseColor.png"
    },
    {
      "uri": "textures/jsf_auxMat_metallicRoughness.png"
    },
    {
      "uri": "textures/jsf_auxMat_normal.png"
    }
  ],
  "materials": [
    {
      "name": "jsf_mainMat",
      "normalTexture": {
        "index": 2
      },
      "pbrMetallicRoughness": {
        "baseColorTexture": {
          "index": 0
        },
        "metallicRoughnessTexture": {
          "index": 1
        }
      }
    },
    {
      "name": "jsf_auxMat",
      "normalTexture": {
        "index": 5
      },
      "pbrMetallicRoughness": {
        "baseColorTexture": {
          "index": 3
        },
        "metallicRoughnessTexture": {
          "index": 4
        }
      }
    }
  ],
  "meshes": [
    {
      "name": "main_jsf_mainMat_0",
      "primitives": [
        {
          "attributes": {
            "NORMAL": 1,
            "POSITION": 0,
            "TANGENT": 2,
            "TEXCOORD_0": 3
          },
          "indices": 4,
          "material": 0,
          "mode": 4
        }
      ]
    },
    {
      "name": "main_jsf_mainMat_0",
      "primitives": [
        {
          "attributes": {
            "NORMAL": 6,
            "POSITION": 5,
            "TANGENT": 7,
            "TEXCOORD_0": 8
          },
          "indices": 9,
          "material": 0,
          "mode": 4
        }
      ]
    },
    {
      "name": "aux_jsf_auxMat_0",
      "primitives": [
        {
          "attributes": {
            "NORMAL": 11,
            "POSITION": 10,
            "TANGENT": 12,
            "TEXCOORD_0": 13
          },
          "indices": 14,
          "material": 1,
          "mode": 4
        }
      ]
    },
    {
      "name": "aux_jsf_auxMat_0",
      "primitives": [
        {
          "attributes": {
            "NORMAL": 16,
            "POSITION": 15,
            "TANGENT": 17,
            "TEXCOORD_0": 18
          },
          "indices": 19,
          "material": 1,
          "mode": 4
        }
      ]
    }
  ],
  "nodes": [
    {
      "children": [
        1
      ],
      "matrix": [
        1.0,
        0.0,
        0.0,
        0.0,
        0.0,
        2.220446049250313e-16,
        -1.0,
        0.0,
        0.0,
        1.0,
        2.220446049250313e-16,
        0.0,
        0.0,
        0.0,
        0.0,
        1.0
      ],
      "name": "Sketchfab_model"
    },
    {
      "children": [
        2
      ],
      "matrix": [
        1.0,
        0.0,
        0.0,
        0.0,
        0.0,
        0.0,
        1.0,
        0.0,
        0.0,
        -1.0,
        0.0,
        0.0,
        0.0,
        0.0,
        0.0,
        1.0
      ],
      "name": "jsf_RealTimeModel.fbx"
    },
    {
      "children": [
        3,
        6
      ],
      "name": "RootNode"
    },
    {
      "children": [
        4,
        5
      ],
      "matrix": [
        100.0,
        0.0,
        0.0,
        0.0,
        0.0,
        -1.629206793918314e-05,
        -99.99999999999868,
        0.0,
        0.0,
        99.99999999999868,
        -1.629206793918314e-05,
        0.0,
        0.0,
        0.0,
        0.0,
        1.0
      ],
      "name": "main"
    },
    {
      "mesh": 0,
      "name": "main_jsf_mainMat_0"
    },
    {
      "mesh": 1,
      "name": "main_jsf_mainMat_0"
    },
    {
      "children": [
        7,
        8
      ],
      "matrix": [
        100.0,
        0.0,
        0.0,
        0.0,
        0.0,
        -1.629206793918314e-05,
        -99.99999999999868,
        0.0,
        0.0,
        99.99999999999868,
        -1.629206793918314e-05,
        0.0,
        0.0,
        0.0,
        0.0,
        1.0
      ],
      "name": "aux"
    },
    {
      "mesh": 2,
      "name": "aux_jsf_auxMat_0"
    },
    {
      "mesh": 3,
      "name": "aux_jsf_auxMat_0"
    }
  ],
  "samplers": [
    {
      "magFilter": 9729,
      "minFilter": 9987,
      "wrapS": 10497,
      "wrapT": 10497
    }
  ],
  "scene": 0,
  "scenes": [
    {
      "name": "Sketchfab_Scene",
      "nodes": [
        0
      ]
    }
  ],
  "textures": [
    {
      "sampler": 0,
      "source": 0
    },
    {
      "sampler": 0,
      "source": 1
    },
    {
      "sampler": 0,
      "source": 2
    },
    {
      "sampler": 0,
      "source": 3
    },
    {
      "sampler": 0,
      "source": 4
    },
    {
      "sampler": 0,
      "source": 5
    }
  ]
}
